<?xml version="1.0" encoding="utf-8"?>
<!-- Generator: Adobe Illustrator 15.0.0, SVG Export Plug-In . SVG Version: 6.00 Build 0)  -->
<!DOCTYPE svg PUBLIC "-//W3C//DTD SVG 1.1//EN" "http://www.w3.org/Graphics/SVG/1.1/DTD/svg11.dtd">
<svg version="1.1" id="Layer_1" xmlns="http://www.w3.org/2000/svg" xmlns:xlink="http://www.w3.org/1999/xlink" x="0px" y="0px"
	 width="500px" height="360px" viewBox="0 0 500 360" enable-background="new 0 0 500 360" xml:space="preserve">
<rect x="-74.453" y="-4.5" fill="#CCCCCC" width="648.634" height="393"/>
<g>
	<path fill="#FFFFFF" d="M175.093,186.212v-13.423h2.709v13.423H175.093z"/>
	<path fill="#FFFFFF" d="M180.349,186.212v-13.423h4.055l2.437,9.156l2.408-9.156h4.063v13.423h-2.519v-10.567l-2.662,10.567h-2.608
		l-2.658-10.567v10.567H180.349z"/>
	<path fill="#FFFFFF" d="M208.107,186.212h-2.947l-1.172-3.05h-5.365l-1.109,3.05h-2.872l5.226-13.423h2.865L208.107,186.212z
		 M203.118,180.901l-1.852-4.982l-1.813,4.982H203.118z"/>
	<path fill="#FFFFFF" d="M215.787,181.276v-2.262h5.844v5.346c-0.568,0.549-1.392,1.032-2.468,1.451
		c-1.077,0.421-2.167,0.627-3.272,0.627c-1.405,0-2.628-0.294-3.672-0.882c-1.044-0.588-1.829-1.432-2.354-2.528
		c-0.525-1.093-0.785-2.287-0.785-3.573c0-1.399,0.29-2.64,0.876-3.728c0.586-1.085,1.443-1.918,2.573-2.498
		c0.861-0.447,1.933-0.669,3.216-0.669c1.665,0,2.967,0.35,3.901,1.05c0.939,0.696,1.541,1.663,1.811,2.897l-2.692,0.503
		c-0.189-0.661-0.543-1.181-1.067-1.561c-0.521-0.383-1.174-0.574-1.953-0.574c-1.186,0-2.127,0.377-2.826,1.126
		c-0.698,0.752-1.046,1.865-1.046,3.342c0,1.593,0.353,2.787,1.061,3.584c0.707,0.797,1.638,1.196,2.784,1.196
		c0.565,0,1.136-0.113,1.708-0.336c0.572-0.222,1.061-0.491,1.468-0.812v-1.701H215.787z"/>
	<path fill="#FFFFFF" d="M224.128,186.212v-13.423h9.952v2.27h-7.243v2.975h6.74v2.263h-6.74v3.651h7.499v2.264H224.128z"/>
	<path fill="#FFFFFF" d="M241.844,186.212v-13.423h4.347c1.648,0,2.723,0.069,3.222,0.202c0.771,0.203,1.413,0.639,1.933,1.314
		c0.519,0.674,0.78,1.546,0.78,2.614c0,0.825-0.15,1.516-0.45,2.079c-0.3,0.562-0.68,1.002-1.142,1.322
		c-0.46,0.322-0.926,0.533-1.403,0.634c-0.646,0.133-1.583,0.194-2.811,0.194h-1.768v5.064H241.844z M244.553,175.059v3.809h1.482
		c1.069,0,1.783-0.07,2.144-0.209c0.361-0.141,0.645-0.361,0.847-0.66c0.205-0.3,0.309-0.647,0.309-1.044
		c0-0.489-0.146-0.891-0.432-1.207c-0.288-0.32-0.649-0.517-1.091-0.596c-0.32-0.062-0.972-0.092-1.949-0.092H244.553z"/>
	<path fill="#FFFFFF" d="M254.421,186.212v-13.313h2.712v11.049h6.737v2.264H254.421z"/>
	<path fill="#FFFFFF" d="M277.903,186.212h-2.947l-1.171-3.05h-5.364l-1.109,3.05h-2.871l5.226-13.423h2.865L277.903,186.212z
		 M272.916,180.901l-1.847-4.982l-1.813,4.982H272.916z"/>
	<path fill="#FFFFFF" d="M287.93,181.276l2.627,0.833c-0.401,1.467-1.071,2.554-2.011,3.266c-0.933,0.709-2.122,1.063-3.563,1.063
		c-1.782,0-3.248-0.606-4.395-1.824c-1.148-1.219-1.72-2.882-1.72-4.994c0-2.235,0.575-3.97,1.729-5.206
		c1.151-1.235,2.671-1.854,4.551-1.854c1.643,0,2.974,0.486,4,1.455c0.611,0.575,1.068,1.399,1.372,2.473l-2.68,0.642
		c-0.158-0.696-0.49-1.247-0.993-1.649s-1.118-0.604-1.836-0.604c-0.998,0-1.806,0.358-2.423,1.07
		c-0.62,0.717-0.931,1.872-0.931,3.471c0,1.698,0.306,2.905,0.916,3.625c0.611,0.723,1.406,1.083,2.381,1.083
		c0.72,0,1.338-0.23,1.856-0.689C287.33,182.978,287.703,182.26,287.93,181.276z"/>
	<path fill="#FFFFFF" d="M292.882,186.212v-13.423h9.951v2.27h-7.241v2.975h6.738v2.263h-6.738v3.651h7.498v2.264H292.882z"/>
	<path fill="#FFFFFF" d="M305.399,186.212v-13.423h2.709v5.282h5.31v-5.282h2.71v13.423h-2.71v-5.871h-5.31v5.871H305.399z"/>
	<path fill="#FFFFFF" d="M318.379,179.583c0-1.369,0.206-2.514,0.613-3.442c0.305-0.686,0.723-1.298,1.251-1.84
		c0.527-0.544,1.105-0.947,1.736-1.21c0.835-0.354,1.798-0.531,2.892-0.531c1.977,0,3.559,0.613,4.746,1.84
		c1.189,1.228,1.781,2.932,1.781,5.12c0,2.165-0.588,3.861-1.767,5.086c-1.18,1.222-2.753,1.832-4.725,1.832
		c-1.995,0-3.583-0.606-4.761-1.824C318.971,183.396,318.379,181.718,318.379,179.583z M321.172,179.492
		c0,1.519,0.352,2.671,1.055,3.455c0.7,0.783,1.59,1.179,2.673,1.179c1.081,0,1.965-0.392,2.66-1.169
		c0.69-0.778,1.038-1.945,1.038-3.5c0-1.541-0.337-2.687-1.012-3.445c-0.674-0.754-1.571-1.134-2.687-1.134
		c-1.119,0-2.018,0.382-2.701,1.148C321.514,176.791,321.172,177.946,321.172,179.492z"/>
	<path fill="#FFFFFF" d="M333.588,186.212v-13.313h2.709v11.049h6.737v2.264H333.588z"/>
	<path fill="#FFFFFF" d="M344.957,172.789h4.954c1.116,0,1.966,0.085,2.553,0.257c0.788,0.23,1.464,0.644,2.023,1.236
		c0.563,0.591,0.991,1.315,1.283,2.172c0.294,0.858,0.438,1.917,0.438,3.173c0,1.105-0.136,2.057-0.412,2.858
		c-0.335,0.978-0.814,1.768-1.438,2.37c-0.468,0.457-1.104,0.814-1.904,1.069c-0.596,0.19-1.396,0.287-2.398,0.287h-5.1V172.789z
		 M347.666,175.059v8.89h2.023c0.759,0,1.302-0.04,1.639-0.125c0.442-0.112,0.805-0.299,1.098-0.56
		c0.287-0.264,0.524-0.696,0.707-1.296c0.183-0.602,0.275-1.422,0.275-2.459c0-1.035-0.093-1.832-0.275-2.39
		c-0.183-0.556-0.438-0.988-0.769-1.299c-0.331-0.311-0.746-0.521-1.256-0.629c-0.376-0.086-1.119-0.131-2.224-0.131H347.666z"/>
	<path fill="#FFFFFF" d="M358.506,186.212v-13.423h9.952v2.27h-7.242v2.975h6.739v2.263h-6.739v3.651h7.499v2.264H358.506z"/>
	<path fill="#FFFFFF" d="M371.023,186.212v-13.423h5.701c1.436,0,2.478,0.122,3.129,0.363c0.648,0.241,1.168,0.669,1.559,1.286
		c0.392,0.616,0.587,1.321,0.587,2.115c0,1.008-0.294,1.838-0.889,2.496c-0.592,0.655-1.477,1.068-2.653,1.241
		c0.585,0.341,1.067,0.716,1.451,1.124c0.381,0.411,0.894,1.135,1.541,2.18l1.641,2.62h-3.243l-1.959-2.922
		c-0.694-1.045-1.172-1.7-1.427-1.971c-0.256-0.272-0.526-0.459-0.816-0.562c-0.286-0.099-0.74-0.149-1.363-0.149h-0.549v5.604
		H371.023z M373.732,178.464h2.005c1.302,0,2.11-0.052,2.437-0.164c0.321-0.111,0.574-0.299,0.757-0.569
		c0.185-0.267,0.276-0.603,0.276-1.005c0-0.453-0.12-0.816-0.361-1.094c-0.241-0.28-0.58-0.455-1.022-0.526
		c-0.219-0.031-0.878-0.048-1.977-0.048h-2.114V178.464z"/>
</g>
</svg>
