<?xml version="1.0" encoding="utf-8"?>
<!-- Generator: Adobe Illustrator 15.0.0, SVG Export Plug-In . SVG Version: 6.00 Build 0)  -->
<!DOCTYPE svg PUBLIC "-//W3C//DTD SVG 1.1//EN" "http://www.w3.org/Graphics/SVG/1.1/DTD/svg11.dtd">
<svg version="1.1" id="Layer_1" xmlns="http://www.w3.org/2000/svg" xmlns:xlink="http://www.w3.org/1999/xlink" x="0px" y="0px"
	 width="270px" height="270px" viewBox="0 0 270 270" enable-background="new 0 0 270 270" xml:space="preserve">
<g id="Background">
</g>
<g id="Circles_on_background">
</g>
<g id="Name">
</g>
<g id="Back_paper">
	<g id="Fill_3_">
	</g>
	<g id="Stroke">
	</g>
</g>
<g id="Resume">
	<g id="Fill_1_">
	</g>
	<g id="Stroke_1_">
	</g>
	<g id="Man">
		<g id="Fill_2_">
		</g>
		<g id="Stroke_2_">
		</g>
	</g>
	<g id="Bars">
	</g>
	<g id="Text">
	</g>
</g>
<g id="Pen">
	<g id="Fill">
	</g>
	<g id="Outlines">
	</g>
</g>
<rect x="-13.863" y="-15.5" fill="#CCCCCC" width="297.214" height="299.5"/>
<g>
	<path fill="#FFFFFF" d="M20.23,141.642V126.86h2.982v14.782H20.23z"/>
	<path fill="#FFFFFF" d="M26.018,141.642V126.86h4.465l2.683,10.084l2.651-10.084h4.474v14.782h-2.772v-11.638l-2.932,11.638h-2.872
		l-2.927-11.638v11.638H26.018z"/>
	<path fill="#FFFFFF" d="M56.583,141.642h-3.247l-1.29-3.359h-5.908l-1.221,3.359h-3.162l5.753-14.782h3.156L56.583,141.642z
		 M51.087,135.792l-2.038-5.484l-1.996,5.484H51.087z"/>
	<path fill="#FFFFFF" d="M65.038,136.206v-2.49h6.435v5.885c-0.625,0.606-1.531,1.137-2.717,1.601
		c-1.186,0.462-2.386,0.688-3.604,0.688c-1.547,0-2.893-0.322-4.043-0.971c-1.15-0.647-2.014-1.576-2.592-2.783
		c-0.578-1.203-0.864-2.519-0.864-3.936c0-1.54,0.319-2.906,0.963-4.104c0.646-1.194,1.591-2.111,2.834-2.751
		c0.949-0.492,2.127-0.735,3.541-0.735c1.833,0,3.266,0.384,4.296,1.154c1.033,0.767,1.696,1.831,1.994,3.191l-2.965,0.554
		c-0.207-0.728-0.599-1.299-1.175-1.718c-0.573-0.422-1.292-0.632-2.15-0.632c-1.306,0-2.342,0.415-3.112,1.239
		c-0.769,0.83-1.152,2.055-1.152,3.681c0,1.754,0.389,3.069,1.167,3.945c0.78,0.879,1.805,1.319,3.066,1.319
		c0.623,0,1.25-0.126,1.88-0.372c0.629-0.242,1.168-0.54,1.616-0.89v-1.875H65.038z"/>
	<path fill="#FFFFFF" d="M74.224,141.642V126.86h10.957v2.499h-7.975v3.276h7.421v2.494h-7.421v4.02h8.257v2.493H74.224z"/>
	<path fill="#FFFFFF" d="M93.73,141.642V126.86h4.788c1.814,0,2.997,0.076,3.547,0.222c0.849,0.224,1.556,0.704,2.127,1.447
		c0.572,0.743,0.86,1.703,0.86,2.88c0,0.907-0.166,1.669-0.495,2.288c-0.332,0.619-0.748,1.104-1.257,1.456
		c-0.507,0.354-1.021,0.587-1.545,0.699c-0.712,0.145-1.744,0.215-3.095,0.215h-1.947v5.576H93.73z M96.712,129.359v4.195h1.633
		c1.176,0,1.962-0.078,2.359-0.231c0.397-0.155,0.71-0.397,0.934-0.726c0.225-0.331,0.338-0.712,0.338-1.15
		c0-0.537-0.16-0.981-0.475-1.328c-0.317-0.352-0.714-0.568-1.201-0.657c-0.353-0.069-1.069-0.102-2.146-0.102H96.712z"/>
	<path fill="#FFFFFF" d="M107.58,141.642v-14.661h2.984v12.167h7.419v2.493H107.58z"/>
	<path fill="#FFFFFF" d="M133.436,141.642h-3.246l-1.289-3.359h-5.908l-1.222,3.359h-3.161l5.753-14.782h3.155L133.436,141.642z
		 M127.943,135.792l-2.034-5.484l-1.997,5.484H127.943z"/>
	<path fill="#FFFFFF" d="M144.477,136.206l2.892,0.918c-0.441,1.614-1.18,2.81-2.212,3.594c-1.031,0.78-2.338,1.172-3.927,1.172
		c-1.963,0-3.576-0.667-4.836-2.009c-1.268-1.343-1.898-3.172-1.898-5.5c0-2.46,0.636-4.37,1.906-5.73
		c1.268-1.36,2.94-2.042,5.01-2.042c1.81,0,3.275,0.534,4.406,1.601c0.671,0.634,1.176,1.541,1.51,2.723l-2.95,0.707
		c-0.174-0.768-0.542-1.374-1.096-1.816c-0.554-0.443-1.229-0.665-2.019-0.665c-1.1,0-1.989,0.394-2.669,1.179
		c-0.685,0.789-1.024,2.061-1.024,3.821c0,1.872,0.336,3.2,1.009,3.993c0.671,0.794,1.548,1.191,2.62,1.191
		c0.792,0,1.475-0.255,2.046-0.76C143.815,138.081,144.227,137.29,144.477,136.206z"/>
	<path fill="#FFFFFF" d="M149.93,141.642V126.86h10.955v2.499h-7.974v3.276h7.421v2.494h-7.421v4.02h8.258v2.493H149.93z"/>
	<path fill="#FFFFFF" d="M163.712,141.642V126.86h2.981v5.816h5.848v-5.816h2.981v14.782h-2.981v-6.464h-5.848v6.464H163.712z"/>
	<path fill="#FFFFFF" d="M178.002,134.342c0-1.508,0.229-2.768,0.677-3.791c0.334-0.755,0.796-1.43,1.379-2.026
		c0.579-0.6,1.215-1.042,1.909-1.332c0.92-0.389,1.98-0.584,3.186-0.584c2.176,0,3.919,0.675,5.226,2.025
		c1.309,1.352,1.962,3.23,1.962,5.638c0,2.382-0.649,4.25-1.944,5.601c-1.301,1.346-3.034,2.017-5.204,2.017
		c-2.197,0-3.944-0.667-5.243-2.009C178.653,138.538,178.002,136.693,178.002,134.342z M181.079,134.241
		c0,1.672,0.388,2.939,1.162,3.804c0.769,0.863,1.749,1.298,2.942,1.298c1.189,0,2.162-0.431,2.929-1.287
		c0.759-0.857,1.143-2.143,1.143-3.855c0-1.695-0.37-2.958-1.113-3.792c-0.741-0.831-1.731-1.249-2.958-1.249
		c-1.234,0-2.223,0.42-2.974,1.265C181.455,131.267,181.079,132.538,181.079,134.241z"/>
	<path fill="#FFFFFF" d="M194.75,141.642v-14.661h2.981v12.167h7.419v2.493H194.75z"/>
	<path fill="#FFFFFF" d="M207.268,126.86h5.454c1.23,0,2.166,0.094,2.812,0.284c0.868,0.253,1.612,0.708,2.229,1.36
		c0.62,0.652,1.092,1.448,1.412,2.393c0.325,0.944,0.483,2.109,0.483,3.493c0,1.218-0.148,2.265-0.454,3.147
		c-0.367,1.075-0.896,1.946-1.583,2.609c-0.514,0.505-1.217,0.898-2.097,1.178c-0.655,0.207-1.536,0.317-2.64,0.317h-5.616V126.86z
		 M210.251,129.359v9.79h2.229c0.835,0,1.434-0.045,1.804-0.139c0.487-0.121,0.888-0.326,1.207-0.616
		c0.318-0.289,0.579-0.767,0.78-1.426c0.199-0.663,0.304-1.565,0.304-2.709c0-1.14-0.104-2.017-0.304-2.631
		c-0.201-0.611-0.481-1.088-0.847-1.431c-0.364-0.341-0.82-0.573-1.382-0.693c-0.414-0.095-1.234-0.144-2.449-0.144H210.251z"/>
	<path fill="#FFFFFF" d="M222.187,141.642V126.86h10.958v2.499h-7.975v3.276h7.421v2.494h-7.421v4.02h8.258v2.493H222.187z"/>
	<path fill="#FFFFFF" d="M235.97,141.642V126.86h6.276c1.582,0,2.729,0.134,3.446,0.399c0.715,0.266,1.286,0.738,1.716,1.417
		c0.433,0.679,0.646,1.455,0.646,2.329c0,1.109-0.322,2.023-0.978,2.748c-0.651,0.721-1.624,1.177-2.923,1.367
		c0.647,0.375,1.178,0.789,1.599,1.237c0.422,0.453,0.983,1.25,1.697,2.4l1.807,2.886h-3.571l-2.155-3.219
		c-0.768-1.148-1.291-1.87-1.571-2.17c-0.281-0.299-0.581-0.504-0.901-0.618c-0.313-0.109-0.814-0.166-1.499-0.166h-0.604v6.173
		H235.97z M238.953,133.11h2.207c1.434,0,2.324-0.058,2.684-0.182c0.353-0.121,0.632-0.329,0.834-0.625
		c0.201-0.293,0.301-0.663,0.301-1.106c0-0.499-0.129-0.899-0.396-1.206c-0.265-0.309-0.639-0.5-1.123-0.58
		c-0.243-0.033-0.967-0.053-2.178-0.053h-2.328V133.11z"/>
</g>
</svg>
